<?xml version="1.0" encoding="utf-8"?>
<svg viewBox="0 0 500 500" xmlns="http://www.w3.org/2000/svg">
  <defs>
    <clipPath id="clip-path">
      <rect class="cls-1" width="24" height="24" style="fill: none;"/>
    </clipPath>
  </defs>
  <g transform="matrix(20.972094, 0, 0, 20.942869, -5.715096, -4.24011)">
    <path d="M16.13,19.88H7.88a3.76,3.76,0,0,1-3.75-3.75V7.88A3.75,3.75,0,0,1,7.88,4.13h8.25a3.76,3.76,0,0,1,3.75,3.75v8.25A3.76,3.76,0,0,1,16.13,19.88ZM7.88,5.63A2.24,2.24,0,0,0,5.63,7.88v8.25a2.25,2.25,0,0,0,2.25,2.25h8.25a2.25,2.25,0,0,0,2.25-2.25V7.88a2.25,2.25,0,0,0-2.25-2.25Z" style="fill: rgb(211, 84, 0);"/>
    <path d="M9.69,5.57a.74.74,0,0,1-.75-.75V2a.75.75,0,0,1,1.5,0V4.82A.75.75,0,0,1,9.69,5.57Z" style="fill: rgb(211, 84, 0);"/>
    <path d="M14.31,5.6a.76.76,0,0,1-.75-.75V2a.75.75,0,0,1,1.5,0V4.85A.75.75,0,0,1,14.31,5.6Z" style="fill: rgb(211, 84, 0);"/>
    <path d="M9.69,22.75A.75.75,0,0,1,8.94,22V19.13a.75.75,0,0,1,1.5,0V22A.76.76,0,0,1,9.69,22.75Z" style="fill: rgb(211, 84, 0);"/>
    <path d="M14.31,22.78a.76.76,0,0,1-.75-.75v-2.9a.75.75,0,0,1,1.5,0V22A.75.75,0,0,1,14.31,22.78Z" style="fill: rgb(211, 84, 0);"/>
    <path d="M22,10.48H19.15a.75.75,0,0,1,0-1.5H22a.75.75,0,0,1,0,1.5Z" style="fill: rgb(211, 84, 0);"/>
    <path d="M22,15.1h-2.9a.75.75,0,0,1,0-1.5H22a.75.75,0,0,1,0,1.5Z" style="fill: rgb(211, 84, 0);"/>
    <path d="M4.9,10.48H2A.75.75,0,0,1,2,9H4.9a.75.75,0,0,1,0,1.5Z" style="fill: rgb(211, 84, 0);"/>
    <path d="M4.9,15.1H2a.75.75,0,0,1,0-1.5H4.9a.75.75,0,0,1,0,1.5Z" style="fill: rgb(211, 84, 0);"/>
  </g>
  <text style="fill: rgb(211, 84, 0); font-family: Roboto; font-size: 92px; font-weight: 900; white-space: pre;" x="146.076" y="276.889">ASM</text>
</svg>