<?xml version="1.0" standalone="no"?>
<svg version="1.0" xmlns="http://www.w3.org/2000/svg" width="800.000000pt" height="800.000000pt"
    viewBox="0 0 800.000000 800.000000" preserveAspectRatio="xMidYMid meet">

    <g transform="translate(0.000000,800.000000) scale(0.100000,-0.100000)" fill="#1F6FEB"
        stroke="none">
        <path d="M3480 7000 c0 -987 0 -1000 20 -1020 18 -18 33 -20 164 -20 118 0
147 3 160 16 14 14 16 120 16 1020 l0 1004 -180 0 -180 0 0 -1000z" />
        <path d="M4870 7986 c-79 -21 -143 -59 -211 -126 -109 -107 -168 -260 -155
-401 15 -166 98 -305 238 -400 32 -22 62 -48 68 -59 6 -12 10 -194 10 -509 0
-478 1 -492 20 -511 18 -18 33 -20 159 -20 114 0 143 3 155 16 14 14 16 75 16
522 l0 507 71 33 c135 64 231 191 265 352 56 264 -98 521 -355 592 -76 21
-212 23 -281 4z" />
        <path d="M1435 7972 c-156 -54 -281 -178 -326 -323 -28 -90 -26 -224 6 -313
48 -137 140 -243 264 -304 67 -33 83 -37 174 -40 154 -7 246 21 363 108 57 43
127 140 145 201 l12 39 389 0 388 0 0 -670 c0 -657 0 -670 20 -690 18 -18 33
-20 155 -20 122 0 137 2 155 20 20 20 20 33 20 835 0 802 0 815 -20 835 -19
19 -33 20 -553 20 l-533 0 -25 28 c-14 15 -38 48 -52 74 -53 93 -179 177 -306
204 -91 19 -214 17 -276 -4z" />
        <path d="M4160 6940 c-19 -19 -20 -33 -20 -480 0 -447 1 -461 20 -480 18 -18
33 -20 164 -20 118 0 147 3 160 16 14 14 16 71 16 480 0 451 -1 465 -20 484
-18 18 -33 20 -160 20 -127 0 -142 -2 -160 -20z" />
        <path d="M7350 6851 c-89 -29 -141 -60 -206 -125 -63 -64 -114 -153 -133 -236
-15 -63 -13 -206 3 -265 40 -150 175 -302 301 -336 l35 -10 0 -229 0 -230
-800 0 c-787 0 -800 0 -820 -20 -18 -18 -20 -33 -20 -160 0 -127 2 -142 20
-160 20 -20 33 -20 984 -20 864 0 966 2 980 16 14 13 16 64 16 401 l0 385 38
37 c21 20 60 52 87 71 60 43 129 142 151 216 12 43 15 89 12 207 -3 147 -4
154 -33 207 -63 117 -196 221 -326 255 -75 20 -221 18 -289 -4z" />
        <path d="M0 6225 l0 -175 575 0 575 0 0 -475 c0 -462 1 -476 20 -495 20 -20
33 -20 554 -20 473 0 536 2 550 16 13 13 16 42 16 160 0 131 -2 146 -20 164
-19 19 -33 20 -390 20 l-370 0 0 470 c0 457 -1 471 -20 490 -20 20 -33 20
-755 20 l-735 0 0 -175z" />
        <path d="M2590 5670 c-20 -20 -20 -33 -20 -1420 0 -1387 0 -1400 20 -1420 20
-20 33 -20 1419 -20 1259 0 1401 2 1415 16 14 14 16 156 16 1420 0 1391 0
1404 -20 1424 -20 20 -33 20 -1415 20 -1382 0 -1395 0 -1415 -20z m639 -283
c7 -10 11 -221 13 -709 l3 -696 250 -253 c137 -140 263 -265 279 -279 l30 -25
655 -3 c458 -2 658 -6 668 -13 21 -18 19 -292 -3 -313 -14 -14 -95 -16 -740
-16 l-726 0 -113 111 -114 111 -16 -38 c-25 -60 -58 -97 -115 -128 -135 -73
-302 -28 -372 101 -76 138 -27 301 109 369 l62 31 -75 77 c-42 42 -89 92 -105
112 l-29 37 0 756 c0 576 3 760 12 769 18 18 312 17 327 -1z m1281 -57 c175
-21 308 -77 406 -171 73 -71 110 -135 129 -226 17 -81 21 -717 5 -804 -27
-143 -132 -276 -273 -343 -149 -71 -263 -85 -689 -86 l-298 0 0 820 0 820 318
0 c175 0 356 -5 402 -10z" />
        <path d="M4140 4521 l0 -561 133 0 c211 0 312 26 379 97 57 59 58 70 58 465 0
412 -1 413 -80 481 -70 60 -112 70 -312 75 l-178 4 0 -561z" />
        <path d="M400 4720 c-20 -20 -20 -33 -20 -793 l0 -774 -22 -20 c-13 -11 -43
-32 -68 -46 -165 -95 -250 -247 -250 -447 0 -194 81 -345 241 -446 266 -167
648 -29 747 271 64 191 17 402 -120 539 -35 35 -79 71 -98 81 -19 9 -45 27
-58 38 l-22 20 0 624 0 623 769 0 c686 0 771 2 785 16 13 12 16 41 16 155 0
126 -2 141 -20 159 -20 20 -33 20 -940 20 -907 0 -920 0 -940 -20z" />
        <path d="M5730 4720 c-18 -18 -20 -33 -20 -155 0 -122 2 -137 20 -155 19 -19
33 -20 484 -20 409 0 466 2 480 16 13 12 16 41 16 155 0 126 -2 141 -20 159
-19 19 -33 20 -480 20 -447 0 -461 -1 -480 -20z" />
        <path d="M7392 4320 c-108 -29 -168 -65 -258 -157 l-81 -83 -651 0 c-639 0
-652 0 -672 -20 -18 -18 -20 -33 -20 -160 0 -127 2 -142 20 -160 20 -20 33
-20 638 -20 577 0 620 -1 634 -17 8 -10 33 -57 56 -104 103 -216 343 -331 567
-274 153 39 278 137 338 262 l32 68 0 175 0 175 -33 61 c-112 206 -353 313
-570 254z" />
        <path d="M1330 4060 c-18 -18 -20 -33 -20 -160 0 -127 2 -142 20 -160 19 -19
33 -20 484 -20 409 0 466 2 480 16 13 13 16 42 16 160 0 131 -2 146 -20 164
-19 19 -33 20 -480 20 -447 0 -461 -1 -480 -20z" />
        <path d="M1630 3410 c-20 -20 -20 -33 -20 -743 l0 -724 -22 -20 c-13 -11 -43
-31 -68 -45 -161 -93 -254 -256 -254 -443 1 -200 102 -368 275 -454 253 -127
570 -30 688 212 34 68 61 177 61 247 0 69 -26 175 -57 232 -36 66 -126 164
-173 188 -21 11 -51 31 -69 45 l-31 27 0 569 0 569 154 0 c127 0 157 3 170 16
13 13 16 42 16 160 0 131 -2 146 -20 164 -19 19 -33 20 -325 20 -292 0 -306
-1 -325 -20z" />
        <path d="M5730 3410 c-18 -18 -20 -33 -20 -155 0 -122 2 -137 20 -155 19 -19
33 -20 395 -20 l375 0 0 -828 0 -829 -22 -19 c-13 -11 -49 -37 -81 -58 -268
-180 -299 -573 -61 -795 142 -133 327 -173 514 -111 352 116 464 559 211 832
-30 33 -75 71 -100 85 -25 15 -56 35 -68 46 l-23 20 0 979 0 979 -25 24 -24
25 -536 0 c-522 0 -535 0 -555 -20z" />
        <path d="M4830 2520 c-20 -20 -20 -33 -20 -1270 l0 -1250 180 0 180 0 0 1250
c0 1237 0 1250 -20 1270 -18 18 -33 20 -160 20 -127 0 -142 -2 -160 -20z" />
        <path d="M2860 2510 c-19 -19 -20 -33 -20 -475 0 -442 1 -456 20 -475 18 -18
33 -20 164 -20 118 0 147 3 160 16 14 14 16 71 16 475 0 446 -1 460 -20 479
-18 18 -33 20 -160 20 -127 0 -142 -2 -160 -20z" />
        <path d="M3500 2510 c-20 -20 -20 -33 -20 -768 l0 -748 -27 -25 c-16 -14 -47
-38 -71 -54 -155 -103 -246 -319 -213 -505 28 -153 138 -306 271 -376 55 -29
57 -29 230 -29 174 0 175 0 235 30 81 40 173 133 213 215 34 69 62 179 62 245
0 62 -26 167 -56 232 -38 81 -150 192 -226 223 l-58 24 0 758 c0 745 0 758
-20 778 -18 18 -33 20 -160 20 -127 0 -142 -2 -160 -20z" />
        <path d="M4160 2510 c-19 -19 -20 -33 -20 -475 0 -442 1 -456 20 -475 18 -18
33 -20 164 -20 118 0 147 3 160 16 14 14 16 71 16 475 0 446 -1 460 -20 479
-18 18 -33 20 -160 20 -127 0 -142 -2 -160 -20z" />
    </g>
</svg>
