<?xml version="1.0" encoding="UTF-8"?>
<svg width="800px" height="800px" viewBox="0 0 24 24" version="1.1" xmlns="http://www.w3.org/2000/svg">
    <g id="Page-1" stroke="none" stroke-width="1" fill="none" fill-rule="evenodd">
        <g id="File-New">
            <rect id="Rectangle" fill-rule="nonzero" x="0" y="0" width="24" height="24"/>
            <path d="M4,5 C4,3.89543 4.89543,3 6,3 L15.1716,3 C15.702,3 16.2107,3.21071 16.5858,3.58579 L19.4142,6.41421 C19.7893,6.78929 20,7.29799 20,7.82843 L20,19 C20,20.1046 19.1046,21 18,21 L6,21 C4.89543,21 4,20.1046 4,19 L4,5 Z" id="Path" stroke="#1f6feb" stroke-width="2" stroke-linecap="round"/>
            <path d="M15,4 L15,6 C15,7.10457 15.8954,8 17,8 L19,8" id="Path" stroke="#1f6feb" stroke-width="2" stroke-linecap="round"/>
            <line x1="12" y1="9" x2="12" y2="15" id="Path" stroke="#1f6feb" stroke-width="2" stroke-linecap="round"/>
            <line x1="9" y1="12" x2="15" y2="12" id="Path" stroke="#1f6feb" stroke-width="2" stroke-linecap="round"/>
        </g>
    </g>
</svg>