<?xml version="1.0" encoding="UTF-8" standalone="no"?>
<svg viewBox="0 0 600 600" version="1.1" id="svg9724" width="600" height="600"
    xmlns="http://www.w3.org/2000/svg">
  <defs id="defs9728" />

  <g id="g10449" transform="matrix(0.95173205,0,0,0.95115787,13.901174,12.168794)" style="stroke-width:1.05103">
    <path id="path1129" style="color:#ABB2BF;fill:#ABB2BF;stroke-linecap:round;stroke-linejoin:round;-inkscape-stroke:none;paint-order:stroke fill markers"
        d="m -899.99998,-310.79461 c -20.43409,0 -40.0078,4.62259 -52.90398,19.2757 -12.89618,14.65312 -13.31011,30.27623 -14.05636,39.78187 -0.74624,9.50565 -1.36732,15.42265 -2.80675,19.0879 -1.43942,3.66526 -2.62672,6.46545 -11.63186,11.66458 -9.00514,5.19911 -12.02109,4.82429 -15.91499,4.23825 -3.89398,-0.58605 -9.32638,-3.00427 -17.93168,-7.11083 -8.6053,-4.10655 -22.3462,-11.56116 -41.4843,-7.71929 -19.138,3.84186 -32.9287,18.48118 -43.1458,36.17762 -10.2171,17.69644 -15.9985,36.95986 -9.7566,55.45483 6.2418,18.49497 19.5659,26.66798 27.4249,32.06708 7.859,5.39908 12.6704,8.893362 15.1249,11.972567 2.4545,3.079205 4.2876,5.506097 4.2876,15.904332 0,10.398237 -1.8331,12.825128 -4.2876,15.904333 -2.4545,3.079204 -7.2659,6.57348 -15.1249,11.972569 -7.859,5.39909 -21.1831,13.572101 -27.4249,32.067077 -6.2419,18.4949758 -0.4605,37.758386 9.7566,55.454828 10.2171,17.696443 24.0078,32.335764 43.1458,36.177623 19.1381,3.84186 32.879,-3.612739 41.4843,-7.719295 8.6053,-4.106556 14.0377,-6.52478 17.93168,-7.110826 3.8939,-0.586047 6.90985,-0.960867 15.91499,4.238251 9.00514,5.199118 10.19243,7.999328 11.63186,11.664579 1.43943,3.665252 2.06051,9.582259 2.80675,19.087903 0.74625,9.505639 1.16018,25.128749 14.05636,39.781869 12.89618,14.65311 32.46989,19.2757 52.90398,19.2757 20.43409,0 40.0078,-4.62259 52.90398,-19.2757 12.89617,-14.65312 13.31011,-30.27623 14.05635,-39.781869 0.74624,-9.505644 1.36733,-15.422651 2.80676,-19.087903 1.43942,-3.665251 2.62672,-6.465461 11.63186,-11.664579 9.00513,-5.199119 12.02108,-4.824297 15.91499,-4.238251 3.89392,0.586046 9.32639,3.004271 17.93164,7.110826 8.60525,4.106555 22.34625,11.561156 41.48432,7.719295 19.13806,-3.84186 32.92874,-18.481179 43.14579,-36.177623 10.21705,-17.696442 15.99856,-36.9598523 9.75668,-55.454828 -6.24189,-18.494976 -19.56594,-26.667988 -27.42495,-32.067077 -7.859,-5.399088 -12.67039,-8.893365 -15.12488,-11.972569 -2.45449,-3.079205 -4.28764,-5.506097 -4.28764,-15.904333 0,-10.398236 1.83315,-12.825127 4.28764,-15.904332 2.45449,-3.079205 7.26588,-6.573487 15.12488,-11.972567 7.85901,-5.3991 21.18307,-13.57211 27.42495,-32.06708 6.24188,-18.49497 0.46037,-37.75839 -9.75668,-55.45483 -10.21705,-17.69644 -24.00773,-32.33576 -43.14579,-36.17762 -19.13807,-3.84186 -32.87907,3.61274 -41.48432,7.71929 -8.60525,4.10656 -14.03772,6.52478 -17.93164,7.11083 -3.89391,0.58604 -6.90986,0.96086 -15.91499,-4.23825 -9.00514,-5.19913 -10.19243,-7.99932 -11.63186,-11.66458 -1.43943,-3.66525 -2.06052,-9.58225 -2.80676,-19.0879 -0.74624,-9.50564 -1.16018,-25.12875 -14.05635,-39.78187 -12.89618,-14.65311 -32.46989,-19.2757 -52.90398,-19.2757 z m 0.0181,130.78031 c 55.63168,0 100.16735,44.4506 100.16735,100.014299 0,55.563699 -44.53567,100.014302 -100.16735,100.014302 -55.63168,0 -100.16738,-44.450603 -100.16738,-100.014302 0,-55.563699 44.5357,-100.014299 100.16738,-100.014299 z"
        transform="matrix(1.3636076,0,0,1.3667651,1527.8554,411.9526)" />
    <g id="path10026" transform="matrix(1.3807551,0,0,1.2700888,273.60014,263.99768)" />
    <g id="g11314" transform="matrix(1.5092301,0,0,1.3955555,36.774048,-9.4503933)" style="stroke-width:50.6951" />
    <path style="color:#ABB2BF;fill:#ABB2BF;stroke-width:1.05103;stroke-linejoin:round;-inkscape-stroke:none;paint-order:stroke fill markers"
        d="m 300.60937,218.51428 c -46.03938,0 -84.05805,38.06434 -84.05805,84.09712 0,46.03278 38.01867,84.09711 84.05805,84.09711 46.03938,0 84.05649,-38.06433 84.05649,-84.09711 0,-46.03278 -38.01711,-84.09712 -84.05649,-84.09712 z"
        id="path344" />
  </g>
</svg>